<svg id="Capa_1" enable-background="new 0 0 511.998 511.998" height="512" viewBox="0 0 511.998 511.998" width="512" xmlns="http://www.w3.org/2000/svg"><g><path d="m255.999 239.958c29.827 0 54.094-24.266 54.094-54.092s-24.267-54.091-54.094-54.091-54.093 24.265-54.093 54.091 24.265 54.092 54.093 54.092zm0-93.182c21.557 0 39.094 17.536 39.094 39.091 0 21.556-17.537 39.092-39.094 39.092-21.556 0-39.093-17.536-39.093-39.092-.001-21.555 17.536-39.091 39.093-39.091z"/><path d="m460.562 455.305c-11.555-11.556-26.457-18.546-42.562-20.064-3.788-16.935-20.354-31.373-37.752-31.373h-24.291c-3.193-16.152-16.502-28.707-33.081-30.781l-8.051-15.817h25.575l51.66 29.491c4.561 2.599 11.219-.549 11.219-6.514v-108.718c0-2.188-.956-4.268-2.617-5.693l-51.742-44.378v-72.858c0-61.235-35.196-119.371-89.444-147.745-2.177-1.139-4.775-1.139-6.954 0-55.171 28.867-89.444 85.479-89.444 147.745v72.861l-51.741 44.374c-1.662 1.425-2.618 3.505-2.618 5.693v30.25c0 4.143 3.358 7.5 7.5 7.5s7.5-3.357 7.5-7.5v-26.802l39.358-33.755v103.642l-39.358 22.467v-32.863c0-4.143-3.358-7.5-7.5-7.5s-7.5 3.357-7.5 7.5v45.78c0 5.962 6.658 9.115 11.218 6.514l51.665-29.492h25.569l-8.073 15.86c-15.723 2.264-29.478 15.283-32.949 30.738h-24.401c-17.398 0-33.964 14.438-37.752 31.373-35.263 3.35-62.938 33.132-62.938 69.257 0 4.143 3.358 7.5 7.5 7.5h232.16c4.143 0 7.5-3.357 7.5-7.5s-3.357-7.5-7.5-7.5h-224.146c3.666-26.555 26.515-47.07 54.116-47.07 4.142 0 7.5-3.357 7.5-7.5 0-11.449 12.11-23.56 23.56-23.56h31.06c4.142 0 7.5-3.357 7.5-7.5 0-11.866 11.648-23.532 23.531-23.588.012 0 50.17.098 54.659.11v85.728c0 4.143 3.358 7.5 7.5 7.5 4.143 0 7.5-3.357 7.5-7.5v-85.693c20.573.04 54.625-.143 54.625-.143.014 0 .028-.003.042-.003 14.531.026 23.524 12.256 23.524 23.589 0 4.143 3.357 7.5 7.5 7.5h31.06c11.449 0 23.56 12.11 23.56 23.56 0 4.143 3.418 7.5 7.561 7.5 14.576 0 28.279 5.677 38.587 15.984 8.518 8.517 13.872 19.354 15.476 31.086h-162.024c-4.143 0-7.5 3.357-7.5 7.5s3.357 7.5 7.5 7.5h170.03c4.143 0 7.5-3.357 7.5-7.5 0-18.582-7.237-36.053-20.377-49.192zm-72.283-180.328v92.352l-39.359-22.469v-103.641zm-210.202-126.378c0-25.475 6.319-49.903 17.822-71.472h43.76c4.142 0 7.5-3.357 7.5-7.5s-3.358-7.5-7.5-7.5h-34.601c12.994-18.734 30.264-34.602 50.94-46.105 20.192 11.24 37.729 27.11 50.905 46.105h-34.565c-4.143 0-7.5 3.357-7.5 7.5s3.357 7.5 7.5 7.5h43.736c11.555 21.652 17.846 46.115 17.846 71.472v162.022h-155.841zm.002 193.67v-16.647h155.841v16.647zm28.03 30.509 7.894-15.509h83.991l7.896 15.513s-98.885-.003-99.781-.004z"/><path d="m217.437 411.929v41.504c0 4.143 3.358 7.5 7.5 7.5s7.5-3.357 7.5-7.5v-41.504c0-4.143-3.358-7.5-7.5-7.5s-7.5 3.358-7.5 7.5z"/><path d="m287.061 404.429c-4.143 0-7.5 3.357-7.5 7.5v41.504c0 4.143 3.357 7.5 7.5 7.5s7.5-3.357 7.5-7.5v-41.504c0-4.142-3.357-7.5-7.5-7.5z"/></g></svg>